<svg width="25" height="26" viewBox="0 0 25 26" fill="none" xmlns="http://www.w3.org/2000/svg">
<path d="M13.75 0.25V3.375H11.25V0.25H13.75ZM24.2675 3.375L16.25 11.3925L14.4825 9.625L22.5 1.6075L24.2675 3.375ZM2.5 1.6075L17.46 16.5675C18.5083 15.9523 19.7448 15.7399 20.9384 15.97C22.1319 16.2002 23.2008 16.8572 23.9451 17.8181C24.6895 18.7791 25.0584 19.9782 24.983 21.1914C24.9075 22.4046 24.3927 23.5487 23.535 24.41C22.6744 25.2704 21.5296 25.7874 20.3152 25.8642C19.1007 25.9409 17.8999 25.5721 16.9379 24.8269C15.9758 24.0817 15.3186 23.0112 15.0893 21.8161C14.8601 20.621 15.0745 19.3833 15.6925 18.335L12.5 15.1425L9.3075 18.335C9.92004 19.3833 10.1304 20.6187 9.89933 21.8107C9.66828 23.0027 9.01159 24.0699 8.05171 24.8135C7.09184 25.557 5.8943 25.9261 4.68239 25.8518C3.47049 25.7776 2.32695 25.2651 1.465 24.41C0.604599 23.5494 0.0875695 22.4046 0.0108158 21.1902C-0.0659379 19.9757 0.302853 18.7749 1.04807 17.8129C1.79328 16.8508 2.86376 16.1936 4.05888 15.9643C5.25399 15.7351 6.49169 15.9495 7.54 16.5675L10.7325 13.375L0.7325 3.375L2.5 1.6075ZM13.75 5.25V8.375H11.25V5.25H13.75ZM6.7675 19.1075C6.53688 18.8687 6.26102 18.6783 5.95601 18.5472C5.651 18.4162 5.32295 18.3473 4.991 18.3444C4.65906 18.3415 4.32986 18.4047 4.02261 18.5304C3.71537 18.6561 3.43624 18.8418 3.20151 19.0765C2.96678 19.3112 2.78115 19.5904 2.65545 19.8976C2.52974 20.2049 2.46649 20.5341 2.46937 20.866C2.47226 21.1979 2.54122 21.526 2.67225 21.831C2.80327 22.136 2.99372 22.4119 3.2325 22.6425C3.70401 23.0979 4.33551 23.3499 4.991 23.3442C5.6465 23.3385 6.27353 23.0756 6.73705 22.612C7.20057 22.1485 7.46349 21.5215 7.46918 20.866C7.47488 20.2105 7.2229 19.579 6.7675 19.1075ZM21.7675 19.1075C21.5369 18.8687 21.261 18.6783 20.956 18.5472C20.651 18.4162 20.323 18.3473 19.991 18.3444C19.6591 18.3415 19.3299 18.4047 19.0226 18.5304C18.7154 18.6561 18.4362 18.8418 18.2015 19.0765C17.9668 19.3112 17.7811 19.5904 17.6554 19.8976C17.5297 20.2049 17.4665 20.5341 17.4694 20.866C17.4723 21.1979 17.5412 21.526 17.6722 21.831C17.8033 22.136 17.9937 22.4119 18.2325 22.6425C18.704 23.0979 19.3355 23.3499 19.991 23.3442C20.6465 23.3385 21.2735 23.0756 21.737 22.612C22.2006 22.1485 22.4635 21.5215 22.4692 20.866C22.4749 20.2105 22.2229 19.579 21.7675 19.1075Z" fill="#752776"/>
</svg>
