<svg width="40" height="40" viewBox="0 0 40 40" fill="none" xmlns="http://www.w3.org/2000/svg">
<path d="M15.8817 7.6748C15.8817 7.6748 12.525 8.0673 11.5267 8.96647C10.5275 9.8648 9.69583 12.7281 9.69583 12.7281L5.90167 24.7873L5.90083 24.7898V24.7731V24.7756C8.4975 24.2323 10.5392 25.7523 10.5392 25.7523V25.7665L13.7683 15.469L14.0417 25.5373L11.8283 32.984C12.7842 34.0323 14.3267 33.704 14.3267 33.704V34.8865C19.9867 35.7781 23.1233 35.5831 28.4408 34.0431L25.9583 25.6915L26.2317 15.6223L29.4617 25.9198C29.4617 25.9198 31.5025 24.3998 34.0992 24.9431L34.0983 24.9415L30.3042 12.8815C30.3042 12.8815 29.4725 10.0181 28.4733 9.1198C27.475 8.22064 24.2233 7.6748 24.2233 7.6748" stroke="#010000" stroke-linecap="round" stroke-linejoin="round"/>
<path d="M20.05 10.1265C18.6175 7.52238 17.4225 5.95404 17.1417 5.53488C17.1417 5.53488 16.5317 4.58154 17.6517 4.58154H22.4492C23.57 4.58154 22.9592 5.53571 22.9592 5.53571C22.3483 6.44488 17.4225 12.784 15.1133 23.3849" stroke="#010000" stroke-linecap="round" stroke-linejoin="round"/>
<path d="M17.295 23.5323C19.49 14.049 23.6717 8.54316 24.2233 7.67566L23.0967 4.86816M18.815 12.5348C17.39 9.76483 16.1625 8.11483 15.8817 7.6715" stroke="#010000" stroke-linecap="round" stroke-linejoin="round"/>
<path d="M26.025 23.2457C20.7558 23.7323 16.5433 23.6248 13.9792 23.2457M25.965 25.4315C20.7608 25.909 16.6 25.8065 14.0392 25.4357M15.8817 7.67483L17.0075 4.86816" stroke="#010000" stroke-linecap="round" stroke-linejoin="round"/>
</svg>
