<svg width="25" height="25" viewBox="0 0 25 25" fill="none" xmlns="http://www.w3.org/2000/svg">
<path d="M3.125 5.46873C2.69531 5.46873 2.34375 5.8203 2.34375 6.24998C2.34375 6.67967 2.69531 7.03123 3.125 7.03123H4.85859L6.90937 15.2344C7.08281 15.9297 7.70625 16.4062 8.42266 16.4062H18.1641C18.8687 16.4062 19.4672 15.939 19.6531 15.2586L21.6797 7.81248H20.0438L18.1641 14.8437H8.42266L6.37188 6.64061C6.28776 6.30393 6.09287 6.00531 5.81855 5.79277C5.54422 5.58022 5.20639 5.4661 4.85937 5.46873H3.125ZM17.1875 16.4062C15.9023 16.4062 14.8438 17.4648 14.8438 18.75C14.8438 20.0351 15.9023 21.0937 17.1875 21.0937C18.4727 21.0937 19.5312 20.0351 19.5312 18.75C19.5312 17.4648 18.4727 16.4062 17.1875 16.4062ZM10.1562 16.4062C8.87109 16.4062 7.8125 17.4648 7.8125 18.75C7.8125 20.0351 8.87109 21.0937 10.1562 21.0937C11.4414 21.0937 12.5 20.0351 12.5 18.75C12.5 17.4648 11.4414 16.4062 10.1562 16.4062ZM12.5 5.46873V7.81248H10.1562V9.37498H12.5V11.7187H14.0625V9.37498H16.4062V7.81248H14.0625V5.46873H12.5ZM10.1562 17.9687C10.5961 17.9687 10.9375 18.3109 10.9375 18.75C10.9375 19.189 10.5953 19.5312 10.1562 19.5312C9.71719 19.5312 9.375 19.189 9.375 18.75C9.375 18.3109 9.71719 17.9687 10.1562 17.9687ZM17.1875 17.9687C17.6273 17.9687 17.9688 18.3109 17.9688 18.75C17.9688 19.189 17.6266 19.5312 17.1875 19.5312C16.7484 19.5312 16.4062 19.189 16.4062 18.75C16.4062 18.3109 16.7484 17.9687 17.1875 17.9687Z" fill="white"/>
</svg>
