<svg width="18" height="20" viewBox="0 0 18 20" fill="none" xmlns="http://www.w3.org/2000/svg">
<path d="M9 1.25C9.8288 1.25 10.6237 1.57924 11.2097 2.16529C11.7958 2.75134 12.125 3.5462 12.125 4.375V5H5.875V4.375C5.875 3.5462 6.20424 2.75134 6.79029 2.16529C7.37634 1.57924 8.1712 1.25 9 1.25ZM13.375 5V4.375C13.375 3.21468 12.9141 2.10188 12.0936 1.28141C11.2731 0.460936 10.1603 0 9 0C7.83968 0 6.72688 0.460936 5.90641 1.28141C5.08594 2.10188 4.625 3.21468 4.625 4.375V5H0.25V17.5C0.25 18.163 0.513392 18.7989 0.982233 19.2678C1.45107 19.7366 2.08696 20 2.75 20H15.25C15.913 20 16.5489 19.7366 17.0178 19.2678C17.4866 18.7989 17.75 18.163 17.75 17.5V5H13.375ZM1.5 6.25H16.5V17.5C16.5 17.8315 16.3683 18.1495 16.1339 18.3839C15.8995 18.6183 15.5815 18.75 15.25 18.75H2.75C2.41848 18.75 2.10054 18.6183 1.86612 18.3839C1.6317 18.1495 1.5 17.8315 1.5 17.5V6.25Z" fill="white"/>
</svg>
