<svg width="36" height="35" viewBox="0 0 36 35" fill="none" xmlns="http://www.w3.org/2000/svg">
<path d="M3.41675 16.0416L7.51029 11.4377C8.05757 10.8218 8.7291 10.3288 9.48067 9.99125C10.2322 9.65368 11.0468 9.47913 11.8707 9.47913H12.1667M3.41675 28.4375H11.4376L17.2709 24.0625C17.2709 24.0625 18.4522 23.2648 20.1876 21.875C23.8334 18.9583 20.1876 14.3412 16.5417 16.7708C13.5726 18.7498 10.7084 20.4166 10.7084 20.4166" stroke="#2549B4" stroke-width="1.5" stroke-linecap="round" stroke-linejoin="round"/>
<path d="M12.1667 19.6875V10.2083C12.1667 9.43474 12.474 8.69288 13.021 8.1459C13.568 7.59892 14.3099 7.29163 15.0834 7.29163H29.6667C30.4403 7.29163 31.1822 7.59892 31.7291 8.1459C32.2761 8.69288 32.5834 9.43474 32.5834 10.2083V18.9583C32.5834 19.7318 32.2761 20.4737 31.7291 21.0207C31.1822 21.5677 30.4403 21.875 29.6667 21.875H20.1876" stroke="#2549B4" stroke-width="1.5"/>
<path d="M28.9375 14.5979L28.9521 14.5818M15.8125 14.5979L15.8271 14.5818M22.375 17.5C21.6015 17.5 20.8596 17.1927 20.3126 16.6457C19.7656 16.0987 19.4583 15.3568 19.4583 14.5833C19.4583 13.8097 19.7656 13.0679 20.3126 12.5209C20.8596 11.9739 21.6015 11.6666 22.375 11.6666C23.1485 11.6666 23.8904 11.9739 24.4374 12.5209C24.9844 13.0679 25.2917 13.8097 25.2917 14.5833C25.2917 15.3568 24.9844 16.0987 24.4374 16.6457C23.8904 17.1927 23.1485 17.5 22.375 17.5Z" stroke="#2549B4" stroke-width="1.5" stroke-linecap="round" stroke-linejoin="round"/>
</svg>
