<svg width="40" height="40" viewBox="0 0 40 40" fill="none" xmlns="http://www.w3.org/2000/svg">
<g clip-path="url(#clip0_90_158)">
<path d="M20 0L0 20L20 40L40 20L20 0ZM26.3448 28.9195L20 35.2184L4.78161 20L11.1264 13.6552L10.7126 13.2874L13.2414 10.7586L13.6552 11.1724L20 4.82759L26.3448 11.1724L26.7586 10.7586L29.2874 13.3333L28.9195 13.6552L35.2644 20L28.9195 26.3448" fill="#EDEDED"/>
<path d="M20 22.5747L18.7126 21.2874L26.3448 28.9195L28.9195 26.3448L22.5747 20L20 22.5747Z" fill="#EDEDED"/>
<path d="M13.977 15.5862L16.5518 18.115L16.046 18.6207L17.4713 20L20 17.4713L13.6552 11.1265L11.1265 13.6552L13.5173 16.046L13.977 15.5862Z" fill="#EDEDED"/>
<path d="M13.2479 10.7424L10.7117 13.2778L11.1018 13.668L13.638 11.1326L13.2479 10.7424Z" fill="#EDEDED"/>
<path d="M26.7293 10.7286L26.3392 11.1187L28.875 13.6545L29.2651 13.2644L26.7293 10.7286Z" fill="#EDEDED"/>
<path d="M28.5444 13.2946L22.2049 19.6341L24.7407 22.1699L31.0802 15.8304L28.5444 13.2946Z" fill="#EDEDED"/>
<path d="M26.7316 10.7306L26.3414 11.1207L28.8768 13.6568L29.267 13.2668L26.7316 10.7306Z" fill="#EDEDED"/>
<path d="M17.4713 20L18.7126 21.2873L20 22.5747L22.5747 20L20 17.4713L17.4713 20Z" fill="#EDEDED"/>
<path d="M13.5161 16.0558L10.2975 19.2743L12.8334 21.8101L16.0519 18.5916L13.5161 16.0558Z" fill="#EDEDED"/>
<path d="M13.9691 15.5561L13.4816 16.044L16.0185 18.5787L16.506 18.0909L13.9691 15.5561Z" fill="#EDEDED"/>
</g>
<defs>
<clipPath id="clip0_90_158">
<rect width="40" height="40" fill="white"/>
</clipPath>
</defs>
</svg>
