<svg width="18" height="33" viewBox="0 0 18 33" fill="none" xmlns="http://www.w3.org/2000/svg">
<path fill-rule="evenodd" clip-rule="evenodd" d="M3.10598 1.316L17.592 15.828C17.7224 15.9526 17.8258 16.1026 17.896 16.2687C17.9662 16.4349 18.0016 16.6136 18 16.794C18.0008 16.9784 17.9652 17.1611 17.8951 17.3317C17.8251 17.5023 17.7221 17.6573 17.592 17.788C12.352 22.9 7.30198 27.834 2.44198 32.59C2.19198 32.824 1.19198 33.406 0.419981 32.542C-0.352019 31.676 0.115981 30.922 0.419981 30.61L14.556 16.794L1.06198 3.276C0.569981 2.59733 0.609981 1.97133 1.18198 1.398C1.75531 0.824664 2.39665 0.795997 3.10598 1.316Z" fill="#7D7D7D"/>
</svg>
