<svg width="133" height="47" viewBox="0 0 133 47" fill="none" xmlns="http://www.w3.org/2000/svg">
<g clip-path="url(#clip0_206_130)">
<path d="M12.6527 22.6698H10.6788V6.04099H12.6527C19.9059 6.04099 22.6961 9.35269 22.6961 14.3387C22.6994 19.3313 19.9092 22.6698 12.6527 22.6698ZM12.6527 5.71619H7.50384V22.3919C4.40249 21.8394 2.69959 19.7934 1.80967 18.0991C-0.371647 14.0138 0.0733143 8.44859 1.76283 5.45165C4.03113 1.39658 9.14986 -0.193975 12.9939 0.489126C13.2014 0.562793 13.392 0.653204 13.5694 0.757008C14.2385 1.14209 15.647 2.30068 15.6938 3.32533C15.7406 4.08545 16.0484 3.66688 16.122 3.45927C16.4031 2.53843 15.6001 1.88546 15.4964 1.42671C16.2391 2.03615 17.0421 2.73264 18.1093 2.68911C19.1331 2.65563 20.2739 2.30403 20.8995 1.48364C20.9731 1.37984 20.9865 1.2325 20.8995 1.17223C20.8728 1.08182 20.7389 1.05168 20.6018 1.09856C19.4308 1.40997 18.213 1.21911 17.0722 0.937829C15.8845 0.63981 14.7303 0.418806 13.392 0.181061C13.1846 0.150924 12.8133 0.107393 12.6359 0.107393C8.67813 -0.455161 3.76683 1.19232 1.46507 5.29092C-0.27128 8.36487 -0.712896 14.0674 1.51191 18.2698C2.83007 20.7645 4.89429 22.2814 7.50384 22.7234V35.3306H10.6788V23.0214H12.6527C20.5917 23.0214 25.871 20.3191 25.871 14.3487C25.8744 8.37492 20.5917 5.71619 12.6527 5.71619Z" fill="black"/>
<path d="M40.99 15.8888V20.2386C39.9529 18.0687 38.3336 15.6209 35.6806 16.006C32.1644 16.5853 31.7495 23.7746 31.7027 28.3186V35.3237H28.4407V14.5662H31.7027V23.5235C32.074 18.9795 33.2015 14.2715 37.3868 14.2715C39.073 14.2715 40.1134 15.0115 40.99 15.8888Z" fill="black"/>
<path d="M45.9749 20.771H58.8052C58.2866 16.9972 55.1418 13.9701 51.2107 14.757C48.4674 15.3229 46.7444 17.831 45.9749 20.771ZM62.1876 29.206C60.8995 31.6705 58.5242 35.0391 53.7333 35.307C48.5108 35.5581 42.6327 32.367 42.4721 25.2681C42.278 17.7406 48.6313 14.5025 53.0508 14.2782C56.4332 14.0572 61.1337 15.8821 61.6991 21.1092H45.9013C45.4128 23.413 45.4998 25.9679 46.1823 28.0306C47.6678 32.5712 51.0501 34.9956 55.1418 34.5167C59.0896 34.0848 61.2541 30.3277 61.9065 29.0687L62.1876 29.206Z" fill="black"/>
<path d="M75.5932 27.612C75.5932 31.1313 74.4223 34.443 71.7224 34.5635C68.5475 34.741 67.9085 32.1861 67.9085 28.506V14.8641H72.6123V14.5661H67.9085V8.92383H64.7335V14.5661H62.3582V14.8641H64.7335V27.9134C64.7335 32.8725 66.9449 35.3237 70.4745 35.3237C74.7468 35.3237 75.8743 31.6403 75.8743 27.6153H75.5932V27.612Z" fill="#ED2224"/>
<path d="M88.9153 27.612C88.9153 31.1313 87.7444 34.443 85.0445 34.5635C81.8695 34.741 81.2305 32.1861 81.2305 28.506V14.8641H85.9344V14.5661H81.2305V8.92383H78.0556V14.5661H75.6802V14.8641H78.0556V27.9134C78.0556 32.8725 80.267 35.3237 83.7966 35.3237C88.0689 35.3237 89.1964 31.6403 89.1964 27.6153H88.9153V27.612Z" fill="#ED2224"/>
<path d="M91.3442 35.3236H94.4857V14.7H91.3442V35.3236Z" fill="black"/>
<path d="M92.9167 12.7077C93.8535 12.7077 94.5928 11.951 94.5928 11.0167C94.5928 10.0925 93.8501 9.33911 92.9167 9.33911C91.9866 9.33911 91.2272 10.0925 91.2272 11.0167C91.2272 11.951 91.9833 12.7077 92.9167 12.7077Z" fill="black"/>
<path d="M106.881 5.24048C103.495 5.24048 99.9223 7.36345 99.9223 12.5771V14.6398H97.5469V14.9814H99.9223V35.3203H103.097V14.9814H105.797V14.6398H103.097V11.7299C103.097 7.74853 104.626 5.66909 107.443 5.66909C109.845 5.66909 111.227 7.31657 111.863 9.43954L112.144 9.30894C111.418 6.93484 110.103 5.24048 106.881 5.24048Z" fill="black"/>
<path d="M124.757 14.5896H124.475L118.022 31.2184L117.962 31.2352L111.257 14.5896H108.082L116.536 35.2567C114 39.9648 109.089 39.8141 108.363 39.1343C108.363 40.2025 108.363 42.1447 108.363 42.1447C111.746 43.3334 115.054 41.3578 117.781 32.6281L117.975 32.1225C119.725 37.6041 117.828 43.1392 113.271 45.4999C108.658 47.9075 103.06 46.4542 100.126 42.3221C100.036 42.1313 99.9625 41.9237 99.919 41.7127C99.7249 40.9693 99.5643 39.1611 100.26 38.4044C100.779 37.8385 100.26 37.9155 100.053 38.0193C99.193 38.4512 99.2967 39.4725 99.0324 39.8744C98.9588 38.9234 98.8852 37.8519 98.109 37.1286C97.3663 36.4287 96.299 35.8662 95.2887 35.9968C95.1582 36.0135 95.0378 36.1006 95.0679 36.2044C95.021 36.2948 95.098 36.4153 95.2151 36.4723C96.2723 37.0817 96.9815 38.0929 97.5737 39.1009C98.2127 40.1523 98.8484 41.1334 99.6212 42.2451C99.7517 42.4226 99.9758 42.7072 100.096 42.8412C102.14 45.4966 105.285 47 108.534 47C110.197 47 111.856 46.6116 113.432 45.7946C118.239 43.2999 120.183 37.3898 118.149 31.6303L124.757 14.5896Z" fill="black"/>
<path d="M25.0751 41.8835C24.7205 42.2485 24.2354 42.3892 23.9008 42.3892C22.9172 42.3892 22.576 41.6525 22.5693 41.0062C22.5626 40.3566 22.9406 39.573 23.9008 39.573C24.2354 39.573 24.6067 39.6668 24.9614 40.0084L25.8312 39.1511C25.2691 38.602 24.6201 38.3508 23.9008 38.3508C22.0273 38.3508 21.1641 39.7137 21.1708 40.9962C21.1775 42.349 21.9403 43.5846 23.9008 43.5846C24.6569 43.5846 25.3394 43.3636 25.9048 42.8077L25.0751 41.8835ZM35.5501 43.377L34.252 41.6927C35.0918 41.321 35.3059 40.802 35.3059 40.1892C35.3059 39.2918 34.6434 38.468 33.3688 38.468H30.9332V43.4607H32.345V41.8433H32.8368L33.9978 43.4607H35.5501V43.377ZM33.3688 39.5931C33.7401 39.5931 33.9175 39.9012 33.9175 40.216C33.9175 40.514 33.7535 40.7919 33.3822 40.7919H32.3417V39.5931H33.3688ZM44.6266 42.2686H42.0271V41.5118H44.3858V40.3633H42.0271V39.6501H44.5263V38.468H40.6354V43.4607H44.6266V42.2686ZM53.6497 43.4607H55.1619L52.9304 38.468H51.5051L49.267 43.4607H50.7624L51.0903 42.6403H53.3218L53.6497 43.4607ZM52.8434 41.4549H51.5687L52.2111 39.8644L52.8434 41.4549ZM60.6118 43.4607H62.0169V39.63H63.479V38.468H59.1598V39.63H60.6151V43.4607H60.6118ZM69.946 43.4607V38.468H68.5408V43.4607H69.946ZM80.3373 38.468H78.7783L78.2062 39.9648L77.5739 41.8132L76.9449 39.9648L76.3728 38.468H74.8138L76.888 43.4841H78.2631L80.3373 38.468ZM89.1931 42.2686H86.5902V41.5118H88.9488V40.3633H86.5902V39.6501H89.0927V38.468H85.2018V43.4607H89.1931V42.2686Z" fill="#ED2224"/>
<path d="M124.636 8.71616H125.439V4.43673H127.072V3.7168C125.64 3.7168 124.429 3.7168 122.997 3.7168V4.43673H124.636V8.71616ZM132.2 8.71616H133V3.73019H132.073L130.434 6.06747L128.788 3.73019C128.47 3.73019 128.176 3.73019 127.861 3.73019V8.71616H128.661V4.89213L130.337 7.2495H130.508L132.204 4.89213V8.71616H132.2Z" fill="black"/>
</g>
<defs>
<clipPath id="clip0_206_130">
<rect width="133" height="47" fill="white"/>
</clipPath>
</defs>
</svg>
