<svg width="36" height="35" viewBox="0 0 36 35" fill="none" xmlns="http://www.w3.org/2000/svg">
<path d="M27.2126 27.1687C25.3355 28.8929 22.9971 30.0334 20.4828 30.4507C17.9684 30.8681 15.3869 30.5443 13.0535 29.519C10.7201 28.4937 8.73569 26.8112 7.34258 24.6768C5.94946 22.5425 5.20793 20.0487 5.2085 17.4999H7.396C7.39584 19.703 8.06095 21.8547 9.30425 23.6734C10.5475 25.492 12.311 26.8929 14.3639 27.6924C16.4167 28.492 18.6631 28.653 20.8089 28.1544C22.9548 27.6558 24.9001 26.5208 26.3901 24.8981H23.2116C22.9215 24.8981 22.6433 24.7828 22.4382 24.5777C22.2331 24.3726 22.1179 24.0944 22.1179 23.8043C22.1179 23.5142 22.2331 23.236 22.4382 23.0309C22.6433 22.8258 22.9215 22.7106 23.2116 22.7106H28.3063C28.5964 22.7106 28.8746 22.8258 29.0797 23.0309C29.2848 23.236 29.4001 23.5142 29.4001 23.8043V28.8946C29.4001 29.1847 29.2848 29.4629 29.0797 29.668C28.8746 29.8732 28.5964 29.9884 28.3063 29.9884C28.0162 29.9884 27.738 29.8732 27.5329 29.668C27.3278 29.4629 27.2126 29.1847 27.2126 28.8946V27.1665V27.1687ZM10.2769 10.104H13.4554C13.7455 10.104 14.0237 10.2192 14.2288 10.4244C14.4339 10.6295 14.5491 10.9077 14.5491 11.1978C14.5491 11.4878 14.4339 11.766 14.2288 11.9712C14.0237 12.1763 13.7455 12.2915 13.4554 12.2915H8.3585C8.06842 12.2915 7.79022 12.1763 7.5851 11.9712C7.37998 11.766 7.26475 11.4878 7.26475 11.1978V6.10307C7.26475 5.81299 7.37998 5.53479 7.5851 5.32968C7.79022 5.12456 8.06842 5.00932 8.3585 5.00932C8.64858 5.00932 8.92678 5.12456 9.13189 5.32968C9.33701 5.53479 9.45225 5.81299 9.45225 6.10307V7.8312C11.329 6.10483 13.6681 4.96256 16.1835 4.54399C18.6989 4.12543 21.2818 4.44868 23.6165 5.47426C25.9512 6.49984 27.9366 8.18332 29.3301 10.319C30.7235 12.4546 31.4646 14.9499 31.4629 17.4999H29.2754C29.2756 15.2966 28.6103 13.1446 27.3667 11.3258C26.1232 9.50695 24.3593 8.1061 22.3061 7.30672C20.2529 6.50733 18.0061 6.34669 15.8601 6.84582C13.7141 7.34496 11.7688 8.48061 10.2791 10.104H10.2769Z" fill="#2549B4"/>
</svg>
