<svg width="36" height="35" viewBox="0 0 36 35" fill="none" xmlns="http://www.w3.org/2000/svg">
<g clip-path="url(#clip0_98_125)">
<path d="M0.166748 6.5625V8.75H20.948V25.1562H14.2149C13.7271 23.2761 12.0361 21.875 10.0105 21.875C7.98487 21.875 6.29394 23.2761 5.80612 25.1562H4.54175V19.6875H2.35425V27.3438H5.80612C6.29394 29.2239 7.98487 30.625 10.0105 30.625C12.0361 30.625 13.7271 29.2239 14.2149 27.3438H23.3061C23.7939 29.2239 25.4849 30.625 27.5105 30.625C29.5361 30.625 31.2271 29.2239 31.7149 27.3438H35.1667V18.4231L35.0978 18.2514L32.9103 11.6889L32.673 10.9375H23.1355V6.5625H0.166748ZM1.2605 10.9375V13.125H11.1042V10.9375H1.2605ZM23.1355 13.125H31.0991L32.9792 18.7305V25.1562H31.7149C31.2271 23.2761 29.5361 21.875 27.5105 21.875C25.4849 21.875 23.7939 23.2761 23.3061 25.1562H23.1355V13.125ZM2.35425 15.3125V17.5H8.91675V15.3125H2.35425ZM10.0105 24.0625C11.2322 24.0625 12.198 25.0283 12.198 26.25C12.198 27.4717 11.2322 28.4375 10.0105 28.4375C8.78878 28.4375 7.823 27.4717 7.823 26.25C7.823 25.0283 8.78878 24.0625 10.0105 24.0625ZM27.5105 24.0625C28.7322 24.0625 29.698 25.0283 29.698 26.25C29.698 27.4717 28.7322 28.4375 27.5105 28.4375C26.2888 28.4375 25.323 27.4717 25.323 26.25C25.323 25.0283 26.2888 24.0625 27.5105 24.0625Z" fill="#2549B4"/>
</g>
<defs>
<clipPath id="clip0_98_125">
<rect width="35" height="35" fill="white" transform="translate(0.166748)"/>
</clipPath>
</defs>
</svg>
