<svg width="18" height="11" viewBox="0 0 18 11" fill="none" xmlns="http://www.w3.org/2000/svg">
<path d="M14.8672 2.30087H2.47656C2.35017 2.30087 2.22895 2.35108 2.13958 2.44045C2.05021 2.52983 2 2.65104 2 2.77744V7.54306C2 7.66945 2.05021 7.79067 2.13958 7.88004C2.22895 7.96941 2.35017 8.01962 2.47656 8.01962H14.8672C14.9936 8.01962 15.1148 7.96941 15.2042 7.88004C15.2935 7.79067 15.3438 7.66945 15.3438 7.54306V2.77744C15.3438 2.65104 15.2935 2.52983 15.2042 2.44045C15.1148 2.35108 14.9936 2.30087 14.8672 2.30087ZM14.3906 7.0665H2.95312V3.254H4.85938V5.16025H5.8125V3.254H8.19531V5.16025H9.14844V3.254H11.5312V5.16025H12.4844V3.254H14.3906V7.0665Z" fill="#666666"/>
</svg>
