<svg width="25" height="25" viewBox="0 0 25 25" fill="none" xmlns="http://www.w3.org/2000/svg">
<path d="M22.1355 12.5H9.26567M4.72296 12.5H2.86462M4.72296 12.5C4.72296 11.8977 4.96221 11.3201 5.38807 10.8943C5.81393 10.4684 6.39153 10.2292 6.99379 10.2292C7.59605 10.2292 8.17365 10.4684 8.59951 10.8943C9.02538 11.3201 9.26462 11.8977 9.26462 12.5C9.26462 13.1022 9.02538 13.6798 8.59951 14.1057C8.17365 14.5316 7.59605 14.7708 6.99379 14.7708C6.39153 14.7708 5.81393 14.5316 5.38807 14.1057C4.96221 13.6798 4.72296 13.1022 4.72296 12.5ZM22.1355 19.3823H16.148M16.148 19.3823C16.148 19.9847 15.9081 20.5629 15.4822 20.9889C15.0562 21.4149 14.4785 21.6542 13.8761 21.6542C13.2738 21.6542 12.6962 21.4139 12.2704 20.988C11.8445 20.5621 11.6052 19.9845 11.6052 19.3823M16.148 19.3823C16.148 18.7799 15.9081 18.2027 15.4822 17.7767C15.0562 17.3507 14.4785 17.1114 13.8761 17.1114C13.2738 17.1114 12.6962 17.3507 12.2704 17.7766C11.8445 18.2024 11.6052 18.78 11.6052 19.3823M11.6052 19.3823H2.86462M22.1355 5.6177H18.9011M14.3584 5.6177H2.86462M14.3584 5.6177C14.3584 5.01543 14.5976 4.43784 15.0235 4.01197C15.4494 3.58611 16.0269 3.34686 16.6292 3.34686C16.9274 3.34686 17.2227 3.4056 17.4982 3.51972C17.7737 3.63384 18.0241 3.80111 18.2349 4.01197C18.4458 4.22284 18.6131 4.47318 18.7272 4.74869C18.8413 5.0242 18.9 5.31949 18.9 5.6177C18.9 5.91591 18.8413 6.2112 18.7272 6.48671C18.6131 6.76222 18.4458 7.01255 18.2349 7.22342C18.0241 7.43428 17.7737 7.60155 17.4982 7.71567C17.2227 7.82979 16.9274 7.88853 16.6292 7.88853C16.0269 7.88853 15.4494 7.64928 15.0235 7.22342C14.5976 6.79755 14.3584 6.21996 14.3584 5.6177Z" stroke="white" stroke-width="0.9375" stroke-miterlimit="10" stroke-linecap="round"/>
</svg>
