<svg width="30" height="30" viewBox="0 0 30 30" fill="none" xmlns="http://www.w3.org/2000/svg">
<path d="M22.5 17.5L25 15M25 15L27.5 12.5M25 15L22.5 12.5M25 15L27.5 17.5" stroke="white" stroke-width="1.5" stroke-linecap="round" stroke-linejoin="round"/>
<path d="M2.5 17.3213V12.6788C2.5 12.0157 2.76339 11.3798 3.23223 10.911C3.70107 10.4422 4.33696 10.1788 5 10.1788H8.625C8.8694 10.1787 9.10842 10.107 9.3125 9.97252L16.8125 5.02752C17.0009 4.90342 17.2195 4.83264 17.4449 4.82269C17.6703 4.81274 17.8942 4.86399 18.0928 4.971C18.2915 5.07801 18.4575 5.23679 18.5732 5.4305C18.6889 5.62422 18.75 5.84563 18.75 6.07127V23.9288C18.75 24.1544 18.6889 24.3758 18.5732 24.5695C18.4575 24.7632 18.2915 24.922 18.0928 25.029C17.8942 25.136 17.6703 25.1873 17.4449 25.1773C17.2195 25.1674 17.0009 25.0966 16.8125 24.9725L9.3125 20.0275C9.10842 19.893 8.8694 19.8213 8.625 19.8213H5C4.33696 19.8213 3.70107 19.5579 3.23223 19.089C2.76339 18.6202 2.5 17.9843 2.5 17.3213Z" stroke="white" stroke-width="1.5"/>
</svg>
