<svg width="25" height="28" viewBox="0 0 25 28" fill="none" xmlns="http://www.w3.org/2000/svg">
<path d="M18.7537 2.195L15.6275 1.5C15.0025 2.75 13.75 3.375 12.5 3.375C11.25 3.375 9.99874 2.75 9.37249 1.5L6.24624 2.195M18.7537 2.195L19.2925 2.31375C20.5525 2.59375 21.685 3.34125 22.1425 4.5475C22.9687 6.735 23.6487 10.23 23.745 15.2487C23.7575 15.8325 23.7625 16.125 23.5787 16.3125C23.395 16.5 23.0987 16.5 22.5062 16.5H19.9575M18.7537 2.195C18.7537 5.0825 19.0237 10.0887 19.9575 16.5M6.24624 2.195L5.70624 2.31375C4.44749 2.59375 3.31499 3.34125 2.85874 4.5475C2.03124 6.735 1.35249 10.23 1.25499 15.2487C1.24249 15.8325 1.23749 16.125 1.42124 16.3125C1.60499 16.5 1.90124 16.5 2.49374 16.5H5.04249M6.24624 2.195C6.24624 5.0825 5.97624 10.0887 5.04249 16.5M19.9575 16.5C20.1375 17.735 20.4925 19.7725 20.785 21.4125C21.0062 22.65 21.1175 23.2688 20.6975 24.0388C20.2787 24.81 19.855 24.9875 19.0075 25.3425C17.5962 25.935 15.4725 26.5 12.5 26.5C9.52874 26.5 7.40374 25.935 5.99249 25.3425C5.14499 24.9875 4.72124 24.81 4.30249 24.0388C3.88249 23.2688 3.99374 22.65 4.21499 21.4125C4.50749 19.7725 4.86249 17.735 5.04249 16.5" stroke="#752776" stroke-width="1.5" stroke-linecap="round" stroke-linejoin="round"/>
<path d="M15.0388 2.75C14.855 7.0975 15.1487 16.185 20 17.75M9.9625 2.75C10.145 7.0975 9.85 16.185 5 17.75" stroke="#752776" stroke-width="1.5" stroke-linecap="round" stroke-linejoin="round"/>
</svg>
