<svg width="25" height="26" viewBox="0 0 25 26" fill="none" xmlns="http://www.w3.org/2000/svg">
<path d="M14.3688 3.57257C19.2438 4.51007 22.5563 8.73299 22.3897 13.7528C22.2365 18.3819 18.4917 22.4174 13.7751 22.9955C11.8808 23.2347 9.9578 22.9237 8.2355 22.0997C7.96009 21.9798 7.65389 21.9499 7.3605 22.0142C5.948 22.3528 4.54696 22.7372 3.14175 23.1028C2.98758 23.1424 2.82925 23.1694 2.60425 23.2163C3.02612 21.6726 3.41987 20.1913 3.84071 18.7163C3.948 18.3434 3.91779 18.0455 3.74591 17.6799C2.10529 14.1955 2.248 10.7767 4.48341 7.61736C6.72404 4.44861 9.88654 3.09653 13.7751 3.49236C13.9584 3.51007 14.1407 3.53611 14.3688 3.57257ZM20.5292 15.0351C20.8084 13.8934 20.8417 12.7361 20.5688 11.5997C19.748 8.17465 17.6167 5.95486 14.1522 5.25278C10.7532 4.56528 7.89904 5.71111 5.8855 8.52153C3.86883 11.3361 3.82508 14.3549 5.48966 17.3788C5.70321 17.7674 5.7605 18.0872 5.63029 18.5017C5.39279 19.2601 5.20841 20.0351 4.97612 20.8955C5.93966 20.6455 6.78446 20.4059 7.64071 20.2184C7.88341 20.1653 8.20112 20.1934 8.41362 20.3101C13.3053 23.0028 19.1199 20.5184 20.5292 15.0351Z" fill="#0B2369"/>
<path d="M10.151 9.3184C10.3374 9.76319 10.4635 10.1934 10.6822 10.5715C10.9947 11.1111 10.8999 11.5642 10.4687 11.9444C10.0051 12.3528 10.0739 12.6996 10.4062 13.1684C11.1718 14.2476 12.1333 15.0569 13.3468 15.5871C13.6801 15.733 13.9333 15.758 14.1489 15.4236C14.2385 15.2861 14.3635 15.1736 14.4676 15.0444C15.0749 14.2882 14.8843 14.2944 15.8468 14.7121C16.1499 14.8444 16.4531 14.9851 16.7333 15.158C17.0145 15.3299 17.4416 15.5069 17.4958 15.7517C17.6187 16.2934 17.4458 16.8434 16.9937 17.2455C16.1603 17.9871 15.202 18.1101 14.1551 17.8205C11.8906 17.1955 10.1489 15.8371 8.81451 13.9559C8.34368 13.2924 7.92284 12.5559 7.65826 11.7913C7.33743 10.8601 7.56451 9.96215 8.22701 9.1736C8.61764 8.71006 9.09159 8.6059 9.60722 8.72985C9.81451 8.77985 9.9593 9.08819 10.151 9.3184Z" fill="#0B2369"/>
</svg>
